<svg xmlns="http://www.w3.org/2000/svg" viewBox="0 0 48 48" fill="none">
  <rect width="48" height="48" rx="8" fill="#3b82f6" fill-opacity="0.15"/>
  <path d="M24 8C20 8 16 12 16 18C16 22 18 25 20 27V34C20 35 21 36 22 36H26C27 36 28 35 28 34V27C30 25 32 22 32 18C32 12 28 8 24 8Z" fill="#3b82f6" fill-opacity="0.3" stroke="#3b82f6" stroke-width="1.5"/>
  <circle cx="24" cy="16" r="3" fill="#3b82f6"/>
  <path d="M20 38C20 39 21 40 22 40H26C27 40 28 39 28 38" stroke="#3b82f6" stroke-width="1.5" fill="none"/>
  <circle cx="22" cy="36" r="1.5" fill="#3b82f6"/>
  <circle cx="26" cy="36" r="1.5" fill="#3b82f6"/>
</svg>
